<svg xmlns="http://www.w3.org/2000/svg" width="201.12" height="75.77" viewBox="0 0 201.12 75.77"><defs><style>.a{fill:#fff;}.b{fill:#231f20;}.c{fill:#ed1c24;}</style></defs><title>solent-logo</title><rect class="a" x="17.02" y="17.59" width="55.27" height="54.59"/><path class="b" d="M222,388.46a5.17,5.17,0,0,1-2.94-.86l0.63-1.08a3.9,3.9,0,0,0,2.27.75,1.69,1.69,0,0,0,1.94-1.44c0-1.69-2.49-2-3.74-3.41a2.63,2.63,0,0,1-.72-1.86c0-1.47,1.13-2.64,3.09-2.64a5.33,5.33,0,0,1,2.38.52l0,1.38a4.51,4.51,0,0,0-2.3-.69c-1,0-1.75.39-1.75,1.3,0,2.16,4.54,2.15,4.54,5.27,0,1.67-1.48,2.77-3.39,2.77" transform="translate(-137.88 -360)"/><path class="b" d="M228,384.57c0,1.65.77,2.74,2.08,2.74s2-1.11,2-2.74-0.75-2.72-2.09-2.72-2,1.09-2,2.72m4.53-2.86a4.06,4.06,0,0,1,1,2.87,4.11,4.11,0,0,1-1,2.9,3.38,3.38,0,0,1-2.47,1,3.3,3.3,0,0,1-2.38-.91,4.56,4.56,0,0,1,0-5.84A3.49,3.49,0,0,1,232.55,381.72Z" transform="translate(-137.88 -360)"/><path class="b" d="M240,388.3l-0.3-.75a3.67,3.67,0,0,1-2.35.91c-1,0-2.33-.52-2.33-2.69V380.9h1.39v4.75c0,1.13.49,1.64,1.39,1.64a2.45,2.45,0,0,0,1.79-.86V380.9H241v4.65a10.24,10.24,0,0,0,.16,2.75H240" transform="translate(-137.88 -360)"/><path class="b" d="M245.26,388.46a1.49,1.49,0,0,1-1.68-1.63V382h-1.23V380.9h1.23v-1.66l1.39-.44v2.1h2.28L246.8,382H245v4.35a0.71,0.71,0,0,0,.72.89,2.29,2.29,0,0,0,1.29-.49l0.4,0.94a3.84,3.84,0,0,1-2.12.75" transform="translate(-137.88 -360)"/><path class="b" d="M253.34,388.3v-4.5c0-.89-0.16-1.82-1.25-1.82a3.45,3.45,0,0,0-2.11,1v5.29H248.6V377.22H250v4.52a4,4,0,0,1,2.55-1c1.08,0,2.2.64,2.2,2.72v4.87h-1.39" transform="translate(-137.88 -360)"/><path class="b" d="M260.73,384.8l-1.34,0c-1.23.05-1.72,0.46-1.72,1.21A1.21,1.21,0,0,0,259,387.3a2.3,2.3,0,0,0,1.71-.72V384.8m0.39,3.5-0.3-.7a3.15,3.15,0,0,1-2.24.86,2.23,2.23,0,0,1-2.32-2.3c0-1.48,1.08-2.36,3-2.42l1.43,0V383.4a1.37,1.37,0,0,0-1.53-1.55,3.26,3.26,0,0,0-1.94.64l-0.52-.94a4.31,4.31,0,0,1,2.71-.85c1.55,0,2.68.66,2.68,2.57v2.48a8.8,8.8,0,0,0,.15,2.54h-1.16Z" transform="translate(-137.88 -360)"/><path class="b" d="M273.39,388.3v-4.76c0-.92-0.19-1.61-1.14-1.61a3.43,3.43,0,0,0-2.16,1,2.35,2.35,0,0,1,0,.38v5h-1.4v-4.73c0-.92-0.2-1.64-1.15-1.64a3.3,3.3,0,0,0-2.14,1v5.34H264v-7.4h1.15l0.18,0.86a4.31,4.31,0,0,1,2.61-1.05,1.91,1.91,0,0,1,1.86,1.21,4.22,4.22,0,0,1,2.68-1.21,2.12,2.12,0,0,1,2.29,2.4v5.19h-1.4" transform="translate(-137.88 -360)"/><path class="b" d="M279.22,381.92a3.79,3.79,0,0,0-1.13.17v5a2.57,2.57,0,0,0,1.12.25c1.47,0,2.41-1,2.41-2.75a2.33,2.33,0,0,0-2.4-2.62m0,6.54a3,3,0,0,1-1.18-.22V392h-1.38V381.22a7.33,7.33,0,0,1,2.56-.51A3.48,3.48,0,0,1,283,384.5,3.73,3.73,0,0,1,279.27,388.46Z" transform="translate(-137.88 -360)"/><path class="b" d="M286.83,388.46a1.49,1.49,0,0,1-1.67-1.63V382h-1.23V380.9h1.23v-1.66l1.4-.44v2.1h2.28L288.39,382h-1.83v4.35a0.71,0.71,0,0,0,.72.89,2.24,2.24,0,0,0,1.27-.49L289,387.7a3.85,3.85,0,0,1-2.14.75" transform="translate(-137.88 -360)"/><path class="b" d="M291.21,384.57c0,1.65.79,2.74,2.09,2.74s2-1.11,2-2.74-0.75-2.72-2.08-2.72-2.05,1.09-2.05,2.72m4.54-2.86a4.53,4.53,0,0,1,0,5.77,3.59,3.59,0,0,1-4.85.06,4.58,4.58,0,0,1,0-5.84A3.5,3.5,0,0,1,295.75,381.72Z" transform="translate(-137.88 -360)"/><path class="b" d="M303.09,388.3v-4.49c0-.87-0.14-1.84-1.22-1.84a3.55,3.55,0,0,0-2.16,1v5.29h-1.38v-7.4h1.15l0.18,0.85a4.19,4.19,0,0,1,2.62-1c1.08,0,2.2.74,2.2,2.63v5h-1.4" transform="translate(-137.88 -360)"/><path class="b" d="M220,417.21c-0.44-.22-0.48-0.34-0.48-1.21,0-1.6.13-2.88,0.17-3.39,0-.35.09-0.51,0.26-0.51s0.22,0.09.22,0.35a6,6,0,0,0,.09,1.17c0.48,2.37,2.59,3.26,4.73,3.26a4.27,4.27,0,0,0,4.57-4.25c0-2.2-.92-3.48-3.68-5.75l-1.43-1.18c-3.39-2.78-4.16-4.76-4.16-6.93,0-3.42,2.55-5.75,6.61-5.75a12.07,12.07,0,0,1,3,.32,5.21,5.21,0,0,0,1.13.16c0.25,0,.31.07,0.31,0.23s-0.13,1.21-.13,3.38c0,0.51-.06.74-0.22,0.74s-0.22-.16-0.26-0.42a5.47,5.47,0,0,0-.42-1.6c-0.19-.35-1-1.69-4-1.69a3.64,3.64,0,0,0-3.93,3.71c0,1.81.84,3,3.91,5.36l0.9,0.7c3.77,3,4.66,5,4.66,7.51a6.63,6.63,0,0,1-2.71,5.3,8.39,8.39,0,0,1-4.83,1.34,9.61,9.61,0,0,1-4.29-.87" transform="translate(-137.88 -360)"/><path class="b" d="M247.93,416.87c2.52,0,7.6-1.34,7.6-9.21,0-6.51-4-9.93-8.39-9.93-4.7,0-8.09,2.94-8.09,8.85,0,6.32,3.8,10.29,8.88,10.29m-0.64-20.16c6.32,0,11.12,3.87,11.12,10.19A10.88,10.88,0,0,1,247.13,418c-7.7,0-11-5.78-11-10.67A10.76,10.76,0,0,1,247.29,396.71Z" transform="translate(-137.88 -360)"/><path class="b" d="M266.61,409.8c0,4,.07,5.63.57,6.1s1.53,0.64,3.74.64c1.47,0,2.71,0,3.39-.83a3.29,3.29,0,0,0,.66-1.53,0.36,0.36,0,0,1,.29-0.35c0.14,0,.19.12,0.19,0.41A17.4,17.4,0,0,1,275,417c-0.19.64-.29,0.74-1.79,0.74-2,0-3.57,0-4.88-.1s-2.24-.07-3.07-0.07c-0.13,0-.61,0-1.14,0s-1.19.06-1.64,0.06c-0.29,0-.44-0.06-0.44-0.22a0.22,0.22,0,0,1,.22-0.22,3.89,3.89,0,0,0,.87-0.13c0.54-.13.6-0.64,0.73-1.43a57,57,0,0,0,.16-5.88v-4.8c0-4.21,0-5-.06-5.84s-0.22-1.37-1.15-1.5a8,8,0,0,0-1-.07,0.27,0.27,0,0,1-.22-0.22c0-.16.13-0.22,0.44-0.22,1.28,0,3,.06,3.19.06s2.24-.06,3.09-0.06c0.3,0,.45.06,0.45,0.22a0.23,0.23,0,0,1-.22.19c-0.19,0-.61,0-0.93.07-0.82.16-1,.57-1.06,1.53s0,1.63,0,5.84v4.86" transform="translate(-137.88 -360)"/><path class="b" d="M281.15,404.95c0-4.21,0-5-.07-5.84s-0.22-1.37-1.14-1.5a8.16,8.16,0,0,0-1-.07,0.27,0.27,0,0,1-.23-0.22c0-.16.13-0.22,0.45-0.22,1.29,0,3.09.06,3.26,0.06s6.07,0,6.7,0,1.05-.12,1.28-0.16a1.46,1.46,0,0,1,.38-0.13c0.1,0,.13.13,0.13,0.25s-0.16.51-.22,1.28c0,0.25-.1,1.47-0.16,1.79a0.34,0.34,0,0,1-.26.29c-0.16,0-.22-0.13-0.22-0.36a2.84,2.84,0,0,0-.17-1c-0.18-.45-0.47-0.65-2-0.83-0.48-.07-3.74-0.1-4.05-0.1-0.13,0-.16.1-0.16,0.29v7.38c0,0.19,0,.29.16,0.29,0.35,0,4.05,0,4.7-.06a2.11,2.11,0,0,0,1.36-.39,1.19,1.19,0,0,1,.42-0.35c0.1,0,.16.07,0.16,0.23a13.84,13.84,0,0,0-.23,1.5c-0.06.54-.12,1.56-0.12,1.76s-0.06.51-.26,0.51a0.2,0.2,0,0,1-.19-0.25,2.42,2.42,0,0,0-.13-0.9c-0.1-.39-0.35-0.71-1.44-0.83-0.76-.09-3.77-0.12-4.26-0.12a0.16,0.16,0,0,0-.18.19v2.27c0,0.92,0,4.09,0,4.63,0.06,1.82.57,2.18,3.35,2.18a9.33,9.33,0,0,0,2.81-.29,2.07,2.07,0,0,0,1.29-1.89c0.07-.32.13-0.41,0.28-0.41s0.19,0.23.19,0.41a21.72,21.72,0,0,1-.39,2.62c-0.2.71-.48,0.71-1.57,0.71-2.1,0-3.73-.07-4.89-0.1s-1.91-.07-2.32-0.07c-0.07,0-.61,0-1.21,0s-1.19.06-1.63,0.06c-0.28,0-.45-0.06-0.45-0.22a0.22,0.22,0,0,1,.23-0.22,8.44,8.44,0,0,0,.86-0.13c0.54-.1.61-0.64,0.74-1.43a57,57,0,0,0,.16-5.88v-4.8" transform="translate(-137.88 -360)"/><path class="b" d="M299.93,413.93c0.06,2.23.32,2.9,1.09,3.1a6.61,6.61,0,0,0,1.4.16,0.22,0.22,0,0,1,.22.22c0,0.16-.18.22-0.51,0.22-1.6,0-2.71-.1-3-0.1s-1.44.1-2.72,0.1c-0.28,0-.44,0-0.44-0.22a0.21,0.21,0,0,1,.22-0.22,4.47,4.47,0,0,0,1.15-.16c0.69-.2.79-0.93,0.79-3.39V398.08c0-1.08.16-1.37,0.38-1.37a2.53,2.53,0,0,1,1.09.83c0.45,0.44,4.54,4.79,8.89,9.27,2.77,2.87,5.78,6.1,6.64,7l-0.29-13.61c0-1.76-.18-2.37-1.06-2.52a8.79,8.79,0,0,0-1.38-.13,0.22,0.22,0,0,1-.22-0.26c0-.16.22-0.19,0.54-0.19,1.27,0,2.62.06,2.93,0.06s1.25-.06,2.4-0.06c0.28,0,.5,0,0.5.19a0.32,0.32,0,0,1-.31.26,3,3,0,0,0-.68.07c-0.93.19-1,.73-1,2.36l-0.07,15.91c0,1.78,0,1.95-.23,1.95s-0.57-.22-2.14-1.66c-0.28-.26-4.34-4.25-7.31-7.35-3.26-3.42-6.42-6.73-7.28-7.7l0.31,12.81" transform="translate(-137.88 -360)"/><path class="b" d="M331.49,409.74c0,2.62,0,4.75.13,5.88,0.09,0.79.22,1.3,1.09,1.43a10.3,10.3,0,0,0,1.27.13,0.2,0.2,0,0,1,.22.22c0,0.12-.13.22-0.44,0.22-1.54,0-3.32-.1-3.48-0.1s-2.08.1-2.91,0.1c-0.32,0-.44-0.06-0.44-0.22a0.2,0.2,0,0,1,.22-0.2,3.37,3.37,0,0,0,.82-0.12c0.58-.13.74-0.67,0.84-1.46,0.13-1.13.13-3.27,0.13-5.88v-11.4l-4.06.06c-1.75,0-2.43.23-2.84,0.86a4.65,4.65,0,0,0-.44.86,0.27,0.27,0,0,1-.29.26,0.21,0.21,0,0,1-.19-0.22c0-.29.57-2.71,0.61-2.94a1,1,0,0,1,.28-0.51,9.45,9.45,0,0,0,1.25.32c0.8,0.09,1.89.12,2.2,0.12h10.61a14.73,14.73,0,0,0,2-.12c0.43-.07.68-0.13,0.8-0.13s0.13,0.16.13,0.32c0,0.83-.09,2.78-0.09,3.1a0.31,0.31,0,0,1-.26.35c-0.13,0-.19-0.09-0.22-0.48l0-.29c-0.1-.83-0.7-1.44-3.39-1.5l-3.52-.06v11.4" transform="translate(-137.88 -360)"/><path class="b" d="M226.24,431.35a4.7,4.7,0,0,1-5.69.12,3.93,3.93,0,0,1-1-2.83v-6.28h1.34v6.25a2.77,2.77,0,0,0,.66,1.94,2.29,2.29,0,0,0,1.75.65,2.52,2.52,0,0,0,1.91-.65,2.6,2.6,0,0,0,.58-1.85v-6.34h1.34v6.44a3.59,3.59,0,0,1-.93,2.55" transform="translate(-137.88 -360)"/><path class="b" d="M233.62,432.23v-4.3c0-.82-0.13-1.75-1.17-1.75a3.41,3.41,0,0,0-2.06,1v5.06h-1.32v-7.08h1.11l0.16,0.81a4,4,0,0,1,2.51-1c1,0,2.1.71,2.1,2.52v4.74h-1.33" transform="translate(-137.88 -360)"/><path class="b" d="M238.16,425.15v7.08h-1.31v-7.08h1.31Zm0.23-2.23a0.9,0.9,0,0,1-.89.89,0.88,0.88,0,0,1-.89-0.89A0.89,0.89,0,0,1,238.39,422.92Z" transform="translate(-137.88 -360)"/><polyline class="b" points="105.3 72.27 104.31 72.27 101.53 65.15 102.89 65.15 104.82 70.53 104.85 70.53 106.97 65.15 108.25 65.15 105.3 72.27"/><path class="b" d="M249.57,426a1.7,1.7,0,0,0-1.6,1.88h3.14a1.69,1.69,0,0,0-1.54-1.88M248,429a2.15,2.15,0,0,0,2.23,2.28,3.51,3.51,0,0,0,1.72-.49l0.37,0.89a4.07,4.07,0,0,1-2.35.73c-2.3,0-3.36-1.82-3.36-3.79s1.17-3.62,3-3.62,2.93,1.45,2.93,3.65V429H248Z" transform="translate(-137.88 -360)"/><path class="b" d="M257.58,426.43a1.56,1.56,0,0,0-.74-0.16,2.41,2.41,0,0,0-1.48.78v5.18H254v-7.08h1.1l0.17,0.79a2.79,2.79,0,0,1,2-1,1.49,1.49,0,0,1,.81.24l-0.52,1.22" transform="translate(-137.88 -360)"/><path class="b" d="M260.41,432.38a4.18,4.18,0,0,1-2.27-.58l0.49-1a3.27,3.27,0,0,0,1.78.56,1.16,1.16,0,0,0,1.39-1c0-1.57-3.24-1-3.24-3.47,0-1.08.83-1.95,2.48-1.95a4.68,4.68,0,0,1,1.88.37v1.14a4.37,4.37,0,0,0-1.83-.43,1,1,0,0,0-1.21.81c0,1.42,3.29,1,3.29,3.39,0,1.51-1.28,2.13-2.74,2.13" transform="translate(-137.88 -360)"/><path class="b" d="M266.1,425.15v7.08h-1.31v-7.08h1.31Zm0.23-2.23a0.9,0.9,0,0,1-.89.89,0.88,0.88,0,0,1-.89-0.89A0.89,0.89,0,0,1,266.33,422.92Z" transform="translate(-137.88 -360)"/><path class="b" d="M270.31,432.38a1.43,1.43,0,0,1-1.61-1.55v-4.61h-1.18v-1.06h1.18v-1.59l1.34-.41v2h2.18l-0.43,1.06H270v4.16c0,0.59.22,0.85,0.68,0.85a2.22,2.22,0,0,0,1.23-.46l0.39,0.9a3.76,3.76,0,0,1-2,.71" transform="translate(-137.88 -360)"/><path class="b" d="M277,432.77c-0.9,2.57-2,3-3.21,3a3.37,3.37,0,0,1-1.42-.29l0.33-1a2.23,2.23,0,0,0,1.06.24c0.82,0,1.58-.64,2.1-2.45l-3.21-7.11h1.42l2.42,5.54h0l1.86-5.54h1.31L277,432.77" transform="translate(-137.88 -360)"/><path class="c" d="M210.16,391.84v10c0,0.25-8,2.29-9.14,2.6-0.29-.37,3.22-5,3.51-5.3a49.34,49.34,0,0,1,5.63-7.31m0,12.24v19.26c-2-.88-4.12-1.53-5.72-3a63.57,63.57,0,0,1-4.54-4.8c-0.16-1.1,0-8.7,0-8.89m10.28,21.45c-0.16.26-1.9-1.44-2.35-1.9l-3.55-3.67a6,6,0,0,1,1.08.64c1.37,1.44,3.27,3.37,4.82,4.92m0,4.13c-1.2,0-1.45.14-2.2-.83-0.56-1-5.56-8.85-6.15-9.77a10.94,10.94,0,0,1,1.48.51c5.07,5.3,6.87,6.55,6.87,7v3.06m-3.91,0h-2.5s-2.27-7.38-2.23-7.42c0.09,0.38,4.55,7.09,4.74,7.43m-4.05,0h-2.4c-0.59-.89-5.82-9.16-6-9.53,1.11,0,3.87.47,5.7-.76,0,0.56,2.52,9.84,2.71,10.29m-4,0c-1.84,0-2-1.08-3.07-2.32-0.2-.37-1.06-1.49-2.23-3.09a11.77,11.77,0,0,1-1-4.63c0.54,0,5.88,9.8,6.29,10m-4.51,0H193s-0.07-.68-0.2-1.92l1.66,1.92m-4.22,0h-4.13s0-6.75-.07-9.29a14.78,14.78,0,0,1,1.23,2.9c0.19,1.87,2.15,3.55,2.33,3.78a7,7,0,0,1,.64,2.62m-5.69,0h-2.35c0.48-1.95.78-3.53,2.31-4.81,0,0,0,4.14,0,4.81m-6.54,0H171.3c0.72-.62,7.49-6.53,7.72-6.79a19.55,19.55,0,0,1-1,6.79m-11,0h-0.39l2.11-2.25a11.27,11.27,0,0,1-1.72,2.25m-12.06-54.62h55.28c0,1.32,0,6.81,0,8-0.07,0-.72.69-1.86,1.7a15.09,15.09,0,0,0-4.16,1.52,17,17,0,0,0-5.13,4.53c-2.06,2.42-3.89,4.82-5.8,7.08,0-.07,7.17-27.23,7.68-29.39a72.91,72.91,0,0,0,1.64-7.73c0.29-1.77-.29-3.55-1.28-3.3-2,.82-3.47,7.13-4.51,10.71s-1.89,6.84-2.89,10.56c-0.53,2-5.53,18.12-6.34,20.15,0.25-2.36.7-4.49,0-5.74-1.53-.43-3.89,4-4.49,5.12-0.59-2.33-2.82-9.5-2.78-9.23,0-.14-1.77-7-2.64-9.55-1-2.89-3.8-12.18-3.9-12.4-0.42-1-1.62-6.12-3.21-5.87-1,.15-1.38,1.82-0.1,7.81,0.49,2.67,3.38,13.34,4.36,16.33,1.48,4.52,5.92,16.54,6,16.84,0,0-.83,1.44-0.83,1.41-0.23-.6-8.36-15.18-8.8-16-1-1.8-2.86-6.78-3.65-8.31-0.61-1.17-2-4.09-3-4.17-1.91-.14-0.8,4.35-0.68,4.84,0.56,2.35,9.58,21.47,9.58,22.48,0,0.11-25-20.09-25-20-0.46-.32-4.89-4.26-4.76-4.12a12.31,12.31,0,0,0-4.06-2.22c-2.28-.44-2,2.37-0.78,3.92,0.86,1.1,8.61,6.35,10.66,7.66,1.26,0.79,21.83,16.66,25.11,20-0.79.37-19.18,4.06-21.12,4.06-0.54,0-1.58,0-2.2,0-1.18-.05-1.32,1.75-0.16,1.76s2.21,0,3.27,0c0.68,0,7,.94,7.89,1.06,1.45,0.2,9.09,1.57,10,1.64-0.12-.19-8.19,13.48-10.15,13.48h-7.21c0-5.29,0-10.86,0-16.15q0-19.23,0-38.46m45.85-14.39c1-1.32-.43,3.61-0.74,4.9-0.28,1.13-2.81,9.54-4.12,12.08,0.37-2.38,2.71-10.48,3.1-11.82C199.6,366.2,200.74,363.19,200.74,363.19Zm-29.82,5.25c-0.66-3-.09-2.82-0.09-2.82,1.25-.11,9.88,31.81,10.42,35.6C181,400.89,177,390,175.11,384.5,174.67,383.2,172,373.4,170.92,368.44Zm-31.26,12c2.22,0.34,6.64,5,6.75,4.92-0.16-.09,6.22,4.87,8.48,6.66v0.18c0-.09-7.34-5.12-11.15-7.67-2.93-2.2-3.84-2.83-4.08-4.09m25,0a0.2,0.2,0,0,1,.08-0.22,1.79,1.79,0,0,1,.88,1.07c1.32,2.54,4.12,9.31,3.69,9.65a34,34,0,0,1-2.77-5.23,33.3,33.3,0,0,1-1.86-5m31.95,1c-0.22.9-.43,1.83-0.7,2.7-0.11.35-1.82,5-2.5,6.22,0.41-.81,2.18-6.8,3.19-8.92m13.5,5.9s0,0.63,0,.68c0,0.77-8.54,10.72-9.44,12,0.41-1.84,1.49-4.53,1.63-5.25m5.22-7.23c-1.74,1.57-3.32,3-4.64,4.12,0.57-1.53-.9-0.75-1.59-0.49a11.73,11.73,0,0,1,6.22-3.63m-38.22,3.79c0.19,0.11.28,0.27,0.33,0,0.68,1.12,5.09,10,6.14,11.76,0.84,1.44,1.49,3.43,2.45,5-0.58,1.11-.18.52-0.28,0.68a7.67,7.67,0,0,1-1.18-1.24m25.12-15.59c0.24,1-2.65,3-3.39,3.38,1.92-2.42,2.68-3.28,3.39-3.38m-8.77,2.87a13.42,13.42,0,0,1-.67,2.51,4.6,4.6,0,0,1,.67-2.51m-7.07,2.56c0.45-.37.43,1.35,0.25,3.36,0,0.46-.21-0.84-1.15,1,0,0.42.91,1.26,0.87,1.66-0.19,1.49-.38,2.68-0.41,2.69-1.73.18-2.18-4.41-2.18-4.41,0.58-.92.89-1.5,1.63-2.6ZM198.23,403a8.43,8.43,0,0,0-3.78.37,61.23,61.23,0,0,1,5.64-6.29M188.89,404a11.47,11.47,0,0,1-.78-1.13c0.41-1,1.76-5.17,2-5.87m13.14,1.5c-0.56,1.6-2,3.11-3.07,4.5m-18.06,1.11c0.56,0.28.25,0.75,0.69,1.12a1.67,1.67,0,0,1-.69-1.12m4.79,0.27c0.31,0.35.1,0.75-.39,1.4m9.56-1.08c1.59-.46,1.87,0,1.84.26l-5.52,1.43c0.5-1,1.24-1,2.5-1.34m-13.58.47a7.79,7.79,0,0,0,1.08,1.75c-0.27.51-1.32,0-1.93-.13M195.64,408c-0.53.61-1,1.3-1.39,1.8-0.36-.32-0.86-0.86-1.24-1.17,0.81-.29,2.5-0.73,2.82-0.86m2.28,1.41c0,0.48-.08,3.51,0,4.56-0.13-.11-1.68-1.68-1.81-1.84a20.83,20.83,0,0,1,1.83-2.73m-6.77.78c0.42,0.39.62,0.77,1.12,1.27a7.27,7.27,0,0,1-1.18.18c0-.48,0-1,0.06-1.45m-3.2.73a9.11,9.11,0,0,1-.29,1.45c-0.66,0-.53-1.29.29-1.45m-9.1-.36a14.26,14.26,0,0,0,1.63,2.64c0,0.9-.22,1.5-0.47,1.45-0.45-.1-1.65-2.24-1.91-2.89Zm-2.73,1.3c-0.18.48-3.25,5.17-3.25,5.17s-12.93-1.82-13.36-2c0.39-.26,15.85-2.91,16.6-3.21m17,0.84c-0.44.87-.9,2.19-1.32,2.83a5.8,5.8,0,0,1-.67-0.23,2.15,2.15,0,0,0-.55-0.2c0.94-1,1.8-1.74,2.53-2.4m-15.84.31a25.24,25.24,0,0,0,1.77,2.85c-0.75.75-1.43,1.34-1.77,1.68a19.75,19.75,0,0,1-2.39-.28,32.34,32.34,0,0,0,2.33-4.15Zm17.37,1.77s1.07,1.8,1.22,2c-0.58,0-1.4-.15-2-0.26a11.21,11.21,0,0,0,.79-1.76m-14.69,2.29c0.22,0.39.3,0.61,0.71,1.33l-1.58-.3a6.06,6.06,0,0,0,.87-1m1.61-.76a11.94,11.94,0,0,0,1.26,1.4c0,0.2-.07.65-0.09,0.85-0.38-.12-1.63-1.62-1.38-1.93Zm18.2,1.67c0.43,0.64,1,1.14,1.44,1.87l-1.26-.75m-7-1a4.42,4.42,0,0,1,1.32.78c0.74,0.51,3.12,1.45,3.49,1.67a8.14,8.14,0,0,1-4.71.26c-1.79-.22-1-1.4-0.36-2.35m-16.87,1c-1.18,1.07-10.39,12-10.44,11.73,0.12-.36,8.35-12,8.27-12m4.31,0.79c0.54,0.75.71,3.31,0.73,3.33-0.48.4-3.14,2.74-3.74,3.3a19.53,19.53,0,0,1-3.2,2.16c0.19-.24,1.66-2.86,1.64-2.87a37.79,37.79,0,0,1,4.58-5.92m1.85,0.22c-0.1,0,1.34.3,1.68,0.47a11.7,11.7,0,0,1-1.4,1.5m1.47,0.77a11.64,11.64,0,0,1-1.43,3.83c0.06-.79,0-1.88,0-2.5,0,0,.88-0.89,1.4-1.33m28.36,2.49v1.32l-2.53-2.54a25.39,25.39,0,0,0,2.53,1.22m-28.52.44c0.11,0.53.29,0.85-.37,1.09a3,3,0,0,0,.37-1.09" transform="translate(-137.88 -360)"/></svg>